<?xml version="1.0" standalone="no"?>
<!DOCTYPE svg PUBLIC "-//W3C//DTD SVG 20010904//EN"
 "http://www.w3.org/TR/2001/REC-SVG-20010904/DTD/svg10.dtd">
<svg version="1.0" xmlns="http://www.w3.org/2000/svg"
 width="1096.000000pt" height="773.000000pt" viewBox="0 0 1096.000000 773.000000"
 preserveAspectRatio="xMidYMid meet">

<g transform="translate(0.000000,773.000000) scale(0.100000,-0.100000)"
fill="#000000" stroke="none">
<path d="M3630 5236 l-155 -32 -3 -31 c-3 -31 -2 -32 45 -39 79 -11 100 -26
112 -84 15 -68 15 -1210 0 -1262 -12 -44 -44 -65 -114 -75 -43 -5 -45 -7 -45
-39 l0 -34 265 0 265 0 0 34 c0 33 -1 34 -50 40 -81 11 -100 35 -112 141 -5
50 -8 180 -6 290 4 178 7 205 26 248 64 144 207 226 344 198 77 -16 120 -59
149 -149 20 -60 23 -95 27 -320 2 -139 1 -273 -3 -299 -9 -62 -46 -99 -108
-108 -45 -7 -47 -8 -47 -41 l0 -34 255 0 255 0 0 34 c0 32 -2 34 -45 41 -69
10 -94 37 -105 115 -5 36 -10 181 -10 322 0 262 -7 333 -40 398 -46 91 -139
142 -271 148 -47 2 -110 -1 -140 -7 -76 -17 -187 -73 -236 -120 -23 -23 -45
-41 -48 -41 -3 0 -5 167 -5 370 l0 370 -22 -1 c-13 -1 -93 -15 -178 -33z"/>
<path d="M7495 5236 l-150 -32 -3 -32 c-3 -31 -2 -31 49 -38 72 -10 97 -35
109 -109 14 -82 13 -1179 0 -1227 -14 -48 -49 -75 -110 -83 -49 -7 -50 -8 -50
-41 l0 -34 260 0 260 0 0 34 c0 33 -2 34 -47 41 -31 4 -55 16 -74 34 -36 37
-42 94 -37 381 3 223 3 226 31 282 94 192 353 249 454 99 46 -68 62 -183 63
-447 0 -294 -14 -336 -120 -350 -49 -6 -50 -7 -50 -40 l0 -34 260 0 260 0 0
34 c0 32 -2 34 -41 40 -53 9 -75 20 -97 53 -15 24 -18 66 -23 358 -7 370 -12
405 -75 475 -59 65 -131 94 -245 98 -144 6 -249 -29 -364 -123 l-55 -45 0 370
0 370 -27 -1 c-16 -1 -95 -16 -178 -33z"/>
<path d="M9043 5216 c-39 -18 -73 -70 -73 -112 0 -44 39 -97 82 -111 106 -35
199 80 142 176 -30 51 -96 71 -151 47z"/>
<path d="M1900 5120 l0 -40 45 0 c67 0 108 -21 131 -66 18 -37 19 -67 19 -614
0 -626 1 -610 -57 -653 -17 -12 -50 -22 -90 -26 l-63 -6 -3 -37 -3 -38 321 0
321 0 -3 38 -3 37 -62 6 c-128 12 -145 45 -151 294 l-4 181 70 81 70 82 24
-27 c28 -30 350 -428 391 -483 36 -47 44 -91 22 -109 -10 -8 -41 -17 -69 -20
-51 -5 -51 -5 -54 -42 l-3 -38 300 0 301 0 0 40 c0 39 -1 40 -36 40 -86 0
-115 28 -488 479 l-258 312 24 27 c14 15 112 128 218 251 106 123 211 236 233
252 23 16 64 33 98 40 58 11 59 12 59 45 l0 34 -241 0 -240 0 3 -37 c3 -32 7
-38 28 -41 75 -9 100 -40 71 -91 -20 -37 -503 -621 -513 -621 -12 0 -9 516 3
586 15 86 47 116 129 122 l60 4 0 39 0 39 -300 0 -300 0 0 -40z"/>
<path d="M6625 4688 c-134 -50 -215 -200 -185 -343 20 -99 58 -136 291 -287
80 -52 155 -107 166 -122 61 -77 23 -192 -76 -225 -133 -44 -276 50 -328 216
-14 44 -21 53 -40 53 l-23 0 0 -170 c0 -163 1 -170 20 -170 12 0 26 12 36 33
9 17 18 33 19 35 2 2 24 -10 49 -27 60 -38 132 -55 226 -55 106 1 171 25 236
88 117 114 112 291 -10 409 -26 24 -92 73 -147 108 -132 83 -218 148 -241 180
-45 61 -26 154 40 192 40 24 117 25 159 3 44 -22 98 -89 123 -152 18 -44 27
-54 46 -54 l24 0 0 140 c0 124 -2 140 -17 140 -9 0 -25 -7 -35 -16 -16 -16
-21 -15 -70 6 -62 26 -213 37 -263 18z"/>
<path d="M9035 4674 c-249 -50 -225 -41 -225 -80 0 -34 0 -34 48 -34 69 0 114
-26 130 -75 19 -59 13 -681 -7 -711 -21 -31 -59 -51 -113 -59 -46 -7 -48 -8
-48 -41 l0 -34 280 0 280 0 0 34 c0 32 -2 34 -43 39 -74 10 -96 24 -117 69
-18 40 -20 70 -20 481 l0 437 -22 -1 c-13 0 -77 -11 -143 -25z"/>
<path d="M4920 4651 c0 -31 5 -34 71 -45 87 -15 98 -65 99 -446 0 -336 14
-395 109 -467 56 -44 138 -66 237 -67 72 0 88 4 155 35 78 38 140 91 186 160
l28 42 6 -33 c4 -18 10 -74 14 -123 l7 -89 52 5 c28 3 102 9 164 13 l112 7 0
33 c0 32 -2 34 -32 34 -53 0 -107 19 -119 42 -17 32 -28 259 -29 611 l0 317
-175 0 -175 0 0 -30 c0 -24 5 -31 28 -35 71 -15 86 -22 106 -48 20 -27 21 -43
24 -260 2 -142 -1 -248 -8 -275 -31 -123 -133 -255 -216 -280 -126 -37 -218
15 -260 146 -15 49 -18 107 -21 420 l-5 362 -179 0 -179 0 0 -29z"/>
</g>
</svg>
